# xmcd CD database file
#
# Track frame offsets:
#	150
#	7083
#	18023
#	28691
#	41724
#	53439
#	64307
#
# Disc length: 979 seconds
#
# Revision: 0
# Processed by: cddbd v1.5.2PL0 Copyright (c) Steve Scherf et al.
# Submitted via: CDex 1.51
#
DISCID=5003d107
DTITLE=Pascal Mesnier - Lounge Resophonic Record
DYEAR=2007
DGENRE=Blues
TTITLE0=La Partida
TTITLE1=Baby I want you to know
TTITLE2=Few more lines
TTITLE3=Moana Chimes
TTITLE4=Swing at Waikiki
TTITLE5=Boogie Woogie Dance
TTITLE6=Don't let me mother know
EXTD=YEAR: 2007
EXTT0=
EXTT1=
EXTT2=
EXTT3=
EXTT4=
EXTT5=
EXTT6=
PLAYORDER=
